<svg t="1696599736842" class="icon" viewBox="0 0 1024 1024" version="1.1" xmlns="http://www.w3.org/2000/svg" p-id="1066" width="16" height="16"><path d="M798.886462 797.275308c27.100612-27.555781 26.486496-64.214941-2.658765-98.164761-31.594502-36.810883-63.962069-72.855925-95.860017-109.363362-46.217707-52.915192-46.167132-101.741089 0.050574-154.352835 31.955747-36.456862 64.265515-72.603054 95.860018-109.363362 29.14526-34.000395 29.701578-70.659555 2.507041-98.215336-28.068749-28.531143-65.081929-28.169898-99.956538 1.741202-36.146191 31.03096-71.779415 62.632687-107.571585 94.075466-55.010414 48.363503-102.615302 48.060057-158.037536-0.866988-35.683798-31.493354-71.324246-63.13843-107.521011-94.075467-33.798098-28.935738-70.450032-29.14526-98.114188-1.683402-27.765304 27.505207-27.866452 64.475037 0.866989 98.114187 31.493354 36.861457 63.803121 73.058223 95.758868 109.464511 47.496515 54.092851 47.496515 101.950611-0.050574 156.144611-32.569864 37.070979-65.031355 74.185307-97.50007 111.357435-14.673779 16.769001-22.700646 35.943894-18.7125 58.492817 9.507973 53.276437 69.178449 75.615838 111.812604 40.596732 39.946491-32.764937 78.065081-67.805718 116.833912-102.001185 5.006858 2.037423 10.46166 3.207857 16.198233 3.207857 23.784382 0 43.067649-19.283267 43.067649-43.067649s-19.283267-43.067649-43.067649-43.067649c-22.996867 0-41.615443 18.069483-42.836452 40.762905-3.070584 2.413118-6.141168 4.927384-9.211752 7.600598-34.665086 30.113397-68.968927 60.689188-103.634013 90.802585-10.071515 8.742133-20.605424 21.168967-34.614512 6.39404-12.629131-13.344396-1.430531-23.51706 6.74806-32.974459 32.360342-37.222702 65.493749-73.831287 97.550645-111.306861 57.719753-67.386673 57.828126-142.489544 0.303446-209.522197-32.10747-37.475574-65.240877-74.033585-97.550645-111.30686-8.792707-10.12209-20.453701-21.371264-5.519826-34.81681 13.546694-12.217312 23.365337-0.512968 32.822735 7.665623 37.172128 32.418141 73.773488 65.544323 111.40801 97.449496 67.588971 57.264584 141.875427 57.055062 209.67392-0.563542 38.85553-33.075607 76.844072-67.184376 115.186634-100.823527 7.362177-6.444614 15.237321-12.015014 25.106539-6.444613 5.98222 3.37403 10.533909 8.792707 9.970366 16.667852-0.816414 9.204527-7.362177 15.085598-12.831428 21.421838-32.974459 37.836819-66.620834 75.10287-99.132899 113.351509-54.295149 63.701973-54.396297 140.040301-0.303446 203.641125 33.075607 38.906104 67.23495 76.844072 100.772952 115.345582 8.489261 9.717495 18.510202 20.041882 5.620975 32.923884-13.033726 13.040951-23.264189 2.355318-32.822736-5.98222-35.279203-30.727514-70.146587-61.917422-105.476364-92.594361a232.360116 232.360116 0 0 0-7.752321-6.430164c-0.960912-22.931843-19.716761-41.268648-42.887026-41.268648-23.784382 0-43.067649 19.283267-43.067649 43.067649s19.283267 43.067649 43.067649 43.067649c5.462027 0 10.635058-1.11986 15.446843-2.97666 36.724184 32.042446 73.108797 64.568961 110.093077 96.293511 34.881833 29.961674 71.895013 30.214546 99.963763 1.582254zM767.956651 163.022719c7.391076 7.10208 16.682302 6.943132 26.038551 2.456467 9.775294-4.688962 12.246211-13.308272 13.727317-23.567635-0.932013-2.564841-1.358282-6.300116-3.345131-8.792707-19.044845-23.88553-40.437784-45.719188-64.417238-64.417238-8.807157-6.863658-21.64581-3.930347-29.333107 6.495188-7.196004 9.775294-8.554286 21.038919 0 30.171196 18.517427 19.781785 37.793469 38.877205 57.329608 57.654729zM104.29148 709.160387c-9.486298-8.359213-22.845144-6.776959-31.789575 4.118195-8.510936 10.374961-9.103378 22.216578 0.303446 32.194169 18.033359 19.131544 36.550786 37.851269 55.610081 55.956877 6.957582 6.610787 15.829763 8.568735 25.80013 3.482403 9.616346-4.905709 12.954252-12.737505 14.760477-23.777157-1.423306-3.496853-2.160246-9.226202-5.375328-12.593006-19.326616-20.244179-38.364237-40.914628-59.309231-59.381481zM75.247368 314.601191c9.645246 7.911269 21.32069 8.980555 30.26512 0.708041 19.919059-18.416279 38.804956-37.988542 57.466882-57.698079 6.957582-7.347727 7.282703-16.769001 2.673214-26.1397-4.631163-9.414049-12.809754-12.947027-23.170265-14.565405-2.615415 0.997037-6.32179 1.495555-8.799933 3.504078-23.726583 19.297717-45.668614 40.640081-64.381113 64.68456-7.044281 9.052804-3.836424 21.479638 5.946095 29.506505zM798.142297 862.422262c-9.428499-7.976293-21.190641-8.799932-30.250671-0.303446-19.752886 18.531877-38.566534 38.08969-57.351282 57.633054-7.261028 7.557249-6.70471 17.19527-2.673214 26.045776 4.262693 9.349025 12.759179 13.026501 22.707871 13.604493 3.294556-0.794739 7.47055-0.592442 9.739169-2.572065 22.939068-20.034657 45.675839-40.473909 63.897046-64.966331 7.600598-10.201564 3.128383-21.667485-6.068919-29.441481zM243.645415 168.983264c2.059097-0.650241 5.816047-0.866988 8.294189-2.759913 24.904242-19.06652 47.272543-40.943527 65.847769-66.078966 6.105043-8.258065 3.178957-19.846809-5.469251-27.61358-9.428499-8.474812-21.262891-9.905342-30.070048-1.892925-20.619874 18.755849-39.96094 38.978354-59.171959 59.215308-7.13098 7.513899-6.170067 16.985748-1.538904 26.081901 4.371067 8.583185 12.383484 10.880704 22.108204 13.048175zM916.002145 312.195298c5.093557 5.24528 11.155251 7.354952 17.990009 8.323089 10.020941-0.440719 18.510202-4.407191 22.541699-13.720092 4.284368-9.883668 3.525753-20.049107-4.530015-28.242147-17.202495-17.513166-34.484464-34.954082-52.019304-52.142127-11.523721-11.292524-24.65137-12.33291-35.871645-0.700816-11.205825 11.61042-9.421274 24.600796 1.777326 35.980019 16.646177 16.891824 33.588576 33.494652 50.11193 50.502074zM944.822284 707.209663c-10.237688-4.017046-19.984083-2.673214-28.03985 5.295854a6724.434284 6724.434284 0 0 0-50.241977 50.256428c-11.99334 12.116163-14.110236 25.81458-1.314933 37.76457 11.697119 10.924054 24.709169 8.648209 35.972794-2.673214 16.111534-16.191008 32.251969-32.360342 48.435752-48.479102 5.5993-5.577625 9.291226-11.96444 9.305675-20.15748-0.621342-9.869218-4.320492-18.163407-14.117461-22.007056zM254.352722 860.196992c-9.363475-8.482037-21.385714-4.83346-29.448706 4.47944-8.677109 10.020941-10.281037 21.992606-0.671916 32.230293 17.982784 19.174893 36.64471 37.72122 55.443908 56.101375 7.304377 7.145429 16.631727 7.904044 26.024102 4.031496 9.703045-4.002596 13.79234-11.971665 14.54373-23.762707-0.628567-2.442017-0.38292-7.766771-2.926085-10.396636-20.598199-21.29179-41.044676-42.814777-62.965033-62.683261zM193.396213 216.884373c15.302345-0.007225 23.704908-8.467587 23.668783-23.769932-0.036125-15.273446-8.438687-23.213614-26.305873-24.058928-12.260661 1.322157-21.226766 8.554286-21.096718 24.080603 0.137273 15.316795 8.431462 23.762707 23.733808 23.748257zM835.516722 217.288968c12.159512-1.878475 20.988344-9.32735 20.338103-24.875342-0.635791-15.32402-9.088928-23.293088-24.506873-22.975193-15.808089 0.325121-23.076341 9.601897-22.801794 24.542997 0.274546 15.417944 9.197302 22.859594 26.970564 23.307538zM191.915107 807.97539c-14.839951 1.083736-22.563373 9.688595-22.166003 24.781419 0.404595 15.316795 9.00223 23.394237 24.420173 22.982417 15.627466-0.411819 23.199165-9.471848 22.852369-24.557446-0.33957-15.417944-9.247876-22.845144-25.106539-23.20639zM832.164367 808.01874c-15.100048 0.975362-23.798832 8.655434-23.676009 24.037253 0.115598 15.150622 8.171366 23.712133 23.690458 23.712133 15.519092 0 23.56041-8.583185 23.676009-23.726583 0.122823-15.374594-8.583185-23.054667-23.690458-24.022803z" p-id="1067"></path><path d="M588.092682 511.472582c-1.025936-39.982615-36.456862-74.647701-75.825361-74.185307-39.780318 0.512968-74.698276 35.582649-74.799424 75.160669-0.101149 40.336635 37.374425 76.995795 77.096944 75.464115 40.090989-1.640053 74.495978-37.374425 73.527841-76.439477z m-77.35704 25.973528c-14.673779-1.127085-23.314763-11.039652-22.801795-25.612283 0.563542-16.10431 11.1986-25.157113 26.89109-24.030028 14.312534 1.025936 22.3972 10.685632 23.264189 26.074676-2.658764 14.92665-11.1986 24.795868-27.353484 23.567635z" p-id="1068"></path></svg>